<?xml version="1.0" encoding="utf-8"?>
<!-- Generator: Adobe Illustrator 28.7.1, SVG Export Plug-In . SVG Version: 9.03 Build 54978)  -->
<svg version="1.1" id="Layer_1" xmlns="http://www.w3.org/2000/svg" xmlns:xlink="http://www.w3.org/1999/xlink" x="0px" y="0px"
	 viewBox="0 0 2174 2500" style="enable-background:new 0 0 2174 2500;" xml:space="preserve">
<style type="text/css">
	.st0{fill:#FFFFFF;}
	.st1{fill:#D2E5F1;}
	.st2{fill:#B5CFE4;}
</style>
<g>
	<path class="st0" d="M2134.9,484.1l-331.5,1671.2c0,0-46.4,115.9-173.8,60.3l-764.9-586.4l-278.1-134.4l-468.2-157.6
		c0,0-71.9-25.5-78.8-81.1c-7-55.6,81.1-85.8,81.1-85.8l1861.3-730.1C1981.9,440.1,2134.9,372.8,2134.9,484.1z"/>
	<path class="st1" d="M805.9,2136.5c0,0-22.3-2.1-50.1-90.2c-27.8-88.1-169.2-551.7-169.2-551.7l1124.2-713.9c0,0,64.9-39.4,62.6,0
		c0,0,11.6,7-23.2,39.4s-883.1,795-883.1,795"/>
	<path class="st2" d="M1158,1854l-302.6,275.9c0,0-23.7,17.9-49.5,6.7l57.9-512.4"/>
</g>
</svg>
