<?xml version="1.0" encoding="utf-8"?>
<!-- Generator: Adobe Illustrator 28.7.1, SVG Export Plug-In . SVG Version: 9.03 Build 54978)  -->
<svg version="1.1" id="Layer_1" xmlns="http://www.w3.org/2000/svg" xmlns:xlink="http://www.w3.org/1999/xlink" x="0px" y="0px"
	 viewBox="0 0 2174 2500" style="enable-background:new 0 0 2174 2500;" xml:space="preserve">
<style type="text/css">
	.st0{fill-rule:evenodd;clip-rule:evenodd;fill:#FFFFFF;}
</style>
<path class="st0" d="M1302.4,890.9c76.6-38.2,174-94.4,271.5-171.3c20.6,42.7,22.8,80,12.2,110.1c-7.5,21.2-21.7,39.6-40.3,54.3
	c-20.1,15.9-45.3,27.4-73.1,33.6C1419.9,929.5,1358.3,922.6,1302.4,890.9 M1315.6,1282l101.3,58.5c-206.9,116-263.2,331.3-330,541
	c-66.8-209.7-123.1-425.1-330-541l101.3-58.5c20.1-7.6,33-27.3,32-48.8c-9.3-196.4,43.8-283.3,115.3-337.8
	c25.7-19.5,53.7-29.3,81.3-29.3c27.6,0,55.6,9.8,81.3,29.3c71.5,54.5,124.6,141.4,115.3,337.8
	C1282.6,1254.8,1295.5,1274.4,1315.6,1282L1315.6,1282z M1087-0.5c117.1,3.1,234.6,25.9,336.5,70.1c70.6,30.7,136.4,71.2,196,119.6
	c26.9,21.9,49.1,43,73.5,67.3c65.9,2.3,162.1-70.9,206.8-139.4C1823,369.4,1472,667.2,1229,781.1c-0.1,0-0.2-0.1-0.2-0.2
	c-43.6-33.3-92.7-50-141.7-50s-98.1,16.7-141.7,50c-0.1,0-0.1,0.1-0.2,0.2C702,667.2,351,369.4,274.1,117.2
	c44.7,68.5,141,141.7,206.8,139.4c24.4-24.3,46.6-45.5,73.5-67.3c59.6-48.4,125.5-89,196-119.6C852.4,25.4,969.9,2.6,1087-0.5
	 M871.6,890.9c-76.5-38.2-174-94.4-271.5-171.3c-20.6,42.7-22.8,80-12.2,110.1c7.5,21.2,21.7,39.6,40.3,54.3
	c20.2,15.9,45.3,27.4,73.1,33.6C754.1,929.5,815.7,922.6,871.6,890.9"/>
<path class="st0" d="M1680.7,625.3c53.7-54.2,101-114.1,139-167.7L1839,494c62.2,124.4,94.5,248.4,94.5,387.8l-0.1,221.3l1.2,114.7
	c4.5,281.7,65.4,566.6,203.5,827.4l-288.8-232.9L1644.8,2144l-214.7-202.1L1087,2498.7l-343.1-556.8L529.2,2144l-204.4-331.7
	l-288.9,233c138.1-260.8,199-545.8,203.5-827.4l1.2-114.7l-0.1-221.3c0-139.5,32.3-263.4,94.5-387.8l19.3-36.4
	c38,53.5,85.3,113.5,139,167.7l-16.8,34.8c-32.6,67.6-43.4,143.3-18,215.2c16.4,46.3,46.2,86.1,84.7,116.4
	c37.4,29.5,81.6,49.3,127.9,59.7c30.2,6.8,60.9,9.6,91.4,8.6c-7.1,40.4-10.2,82.3-10.4,124.9l-272.5,157.4L690,1460.2
	c16.8,9.4,32.8,20.2,47.8,32.3c173.3,155.6,277.6,616.1,349.2,841c71.6-224.9,175.8-685.3,349.2-841c15-12.1,31-22.9,47.8-32.3
	l210.3-117.9L1421.8,1185c-0.2-42.7-3.3-84.6-10.4-124.9c30.5,1,61.3-1.8,91.4-8.6c46.3-10.4,90.5-30.3,127.9-59.7
	c38.5-30.3,68.3-70.1,84.7-116.4c25.4-71.9,14.6-147.6-18-215.2L1680.7,625.3L1680.7,625.3z"/>
</svg>
